<?xml version="1.0" encoding="UTF-8" standalone="no"?>
<svg
   xmlns:dc="http://purl.org/dc/elements/1.1/"
   xmlns:cc="http://creativecommons.org/ns#"
   xmlns:rdf="http://www.w3.org/1999/02/22-rdf-syntax-ns#"
   xmlns:svg="http://www.w3.org/2000/svg"
   xmlns="http://www.w3.org/2000/svg"
   xmlns:sodipodi="http://sodipodi.sourceforge.net/DTD/sodipodi-0.dtd"
   xmlns:inkscape="http://www.inkscape.org/namespaces/inkscape"
   version="1.0"
   width="1000px"
   height="1000px"
   viewBox="0 0 10000 10000"
   preserveAspectRatio="xMidYMid meet"
   id="svg2"
   inkscape:version="0.48.5 r10040"
   sodipodi:docname="logo.svg">
  <metadata
     id="metadata16">
    <rdf:RDF>
      <cc:Work
         rdf:about="">
        <dc:format>image/svg+xml</dc:format>
        <dc:type
           rdf:resource="http://purl.org/dc/dcmitype/StillImage" />
        <dc:title></dc:title>
      </cc:Work>
    </rdf:RDF>
  </metadata>
  <defs
     id="defs14">
    <filter
       inkscape:label="Drop Shadow"
       inkscape:menu="ABCs"
       inkscape:menu-tooltip="Simple Gaussian blur, same as the blur slider in Fill and Stroke dialog"
       color-interpolation-filters="sRGB"
       id="filter3157"
       style="color-interpolation-filters:sRGB;">
      <feGaussianBlur
         stdDeviation="3"
         id="feGaussianBlur3159"
         result="fbSourceGraphic" />
      <feColorMatrix
         result="fbSourceGraphicAlpha"
         in="fbSourceGraphic"
         values="0 0 0 -1 0 0 0 0 -1 0 0 0 0 -1 0 0 0 0 1 0"
         id="feColorMatrix3165" />
      <feGaussianBlur
         id="feGaussianBlur3167"
         stdDeviation="3"
         in="fbSourceGraphic"
         result="fbSourceGraphic" />
      <feColorMatrix
         result="fbSourceGraphicAlpha"
         in="fbSourceGraphic"
         values="0 0 0 -1 0 0 0 0 -1 0 0 0 0 -1 0 0 0 0 1 0"
         id="feColorMatrix3197" />
      <feFlood
         id="feFlood3199"
         flood-opacity="0.5"
         flood-color="rgb(0,0,0)"
         result="flood"
         in="fbSourceGraphic" />
      <feComposite
         id="feComposite3201"
         in2="fbSourceGraphic"
         in="flood"
         operator="in"
         result="composite1" />
      <feGaussianBlur
         id="feGaussianBlur3203"
         in="composite"
         stdDeviation="20"
         result="blur" />
      <feOffset
         id="feOffset3205"
         dx="1.38778e-16"
         dy="-2.77556e-17"
         result="offset" />
      <feComposite
         id="feComposite3207"
         in2="offset"
         in="fbSourceGraphic"
         operator="over"
         result="fbSourceGraphic" />
      <feColorMatrix
         result="fbSourceGraphicAlpha"
         in="fbSourceGraphic"
         values="0 0 0 -1 0 0 0 0 -1 0 0 0 0 -1 0 0 0 0 1 0"
         id="feColorMatrix3221" />
      <feFlood
         id="feFlood3223"
         flood-opacity="0.5"
         flood-color="rgb(0,0,0)"
         result="flood"
         in="fbSourceGraphic" />
      <feComposite
         id="feComposite3225"
         in2="fbSourceGraphic"
         in="flood"
         operator="in"
         result="composite1" />
      <feGaussianBlur
         id="feGaussianBlur3227"
         in="composite"
         stdDeviation="100"
         result="blur" />
      <feOffset
         id="feOffset3229"
         dx="1.38778e-16"
         dy="-2.77556e-17"
         result="offset" />
      <feComposite
         id="feComposite3231"
         in2="offset"
         in="fbSourceGraphic"
         operator="over"
         result="fbSourceGraphic" />
      <feColorMatrix
         result="fbSourceGraphicAlpha"
         in="fbSourceGraphic"
         values="0 0 0 -1 0 0 0 0 -1 0 0 0 0 -1 0 0 0 0 1 0"
         id="feColorMatrix3281" />
      <feFlood
         id="feFlood3283"
         flood-opacity="0.5"
         flood-color="rgb(0,0,0)"
         result="flood"
         in="fbSourceGraphic" />
      <feComposite
         id="feComposite3285"
         in2="fbSourceGraphic"
         in="flood"
         operator="in"
         result="composite1" />
      <feOffset
         id="feOffset3287"
         dx="1.38778e-16"
         dy="-2.77556e-17"
         result="offset" />
      <feComposite
         id="feComposite3289"
         in2="offset"
         in="fbSourceGraphic"
         operator="over"
         result="composite2" />
    </filter>
    <filter
       inkscape:label="Drop Shadow"
       inkscape:menu="ABCs"
       inkscape:menu-tooltip="Simple Gaussian blur, same as the blur slider in Fill and Stroke dialog"
       color-interpolation-filters="sRGB"
       id="filter3161"
       style="color-interpolation-filters:sRGB;">
      <feGaussianBlur
         stdDeviation="3"
         id="feGaussianBlur3163"
         result="fbSourceGraphic" />
      <feColorMatrix
         result="fbSourceGraphicAlpha"
         in="fbSourceGraphic"
         values="0 0 0 -1 0 0 0 0 -1 0 0 0 0 -1 0 0 0 0 1 0"
         id="feColorMatrix3169" />
      <feGaussianBlur
         id="feGaussianBlur3171"
         stdDeviation="3"
         in="fbSourceGraphic"
         result="fbSourceGraphic" />
      <feColorMatrix
         result="fbSourceGraphicAlpha"
         in="fbSourceGraphic"
         values="0 0 0 -1 0 0 0 0 -1 0 0 0 0 -1 0 0 0 0 1 0"
         id="feColorMatrix3209" />
      <feFlood
         id="feFlood3211"
         flood-opacity="0.5"
         flood-color="rgb(0,0,0)"
         result="flood"
         in="fbSourceGraphic" />
      <feComposite
         id="feComposite3213"
         in2="fbSourceGraphic"
         in="flood"
         operator="in"
         result="composite1" />
      <feGaussianBlur
         id="feGaussianBlur3215"
         in="composite"
         stdDeviation="20"
         result="blur" />
      <feOffset
         id="feOffset3217"
         dx="1.38778e-16"
         dy="-2.77556e-17"
         result="offset" />
      <feComposite
         id="feComposite3219"
         in2="offset"
         in="fbSourceGraphic"
         operator="over"
         result="fbSourceGraphic" />
      <feColorMatrix
         result="fbSourceGraphicAlpha"
         in="fbSourceGraphic"
         values="0 0 0 -1 0 0 0 0 -1 0 0 0 0 -1 0 0 0 0 1 0"
         id="feColorMatrix3233" />
      <feFlood
         id="feFlood3235"
         flood-opacity="0.5"
         flood-color="rgb(0,0,0)"
         result="flood"
         in="fbSourceGraphic" />
      <feComposite
         id="feComposite3237"
         in2="fbSourceGraphic"
         in="flood"
         operator="in"
         result="composite1" />
      <feGaussianBlur
         id="feGaussianBlur3239"
         in="composite"
         stdDeviation="100"
         result="blur" />
      <feOffset
         id="feOffset3241"
         dx="1.38778e-16"
         dy="-2.77556e-17"
         result="offset" />
      <feComposite
         id="feComposite3243"
         in2="offset"
         in="fbSourceGraphic"
         operator="over"
         result="fbSourceGraphic" />
      <feColorMatrix
         result="fbSourceGraphicAlpha"
         in="fbSourceGraphic"
         values="0 0 0 -1 0 0 0 0 -1 0 0 0 0 -1 0 0 0 0 1 0"
         id="feColorMatrix3269" />
      <feFlood
         id="feFlood3271"
         flood-opacity="0.5"
         flood-color="rgb(0,0,0)"
         result="flood"
         in="fbSourceGraphic" />
      <feComposite
         id="feComposite3273"
         in2="fbSourceGraphic"
         in="flood"
         operator="in"
         result="composite1" />
      <feGaussianBlur
         id="feGaussianBlur3275"
         in="composite"
         stdDeviation="200"
         result="blur" />
      <feOffset
         id="feOffset3277"
         dx="1.38778e-16"
         dy="-2.77556e-17"
         result="offset" />
      <feComposite
         id="feComposite3279"
         in2="offset"
         in="fbSourceGraphic"
         operator="over"
         result="fbSourceGraphic" />
      <feColorMatrix
         result="fbSourceGraphicAlpha"
         in="fbSourceGraphic"
         values="0 0 0 -1 0 0 0 0 -1 0 0 0 0 -1 0 0 0 0 1 0"
         id="feColorMatrix3391" />
      <feFlood
         id="feFlood3393"
         flood-opacity="0.5"
         flood-color="rgb(0,0,0)"
         result="flood"
         in="fbSourceGraphic" />
      <feComposite
         in2="fbSourceGraphic"
         id="feComposite3395"
         in="flood"
         operator="in"
         result="composite1" />
      <feGaussianBlur
         id="feGaussianBlur3397"
         in="composite"
         stdDeviation="100"
         result="blur" />
      <feOffset
         id="feOffset3399"
         dx="1.38778e-16"
         dy="-2.77556e-17"
         result="offset" />
      <feComposite
         in2="offset"
         id="feComposite3401"
         in="fbSourceGraphic"
         operator="over"
         result="composite2" />
    </filter>
    <filter
       inkscape:label="Drop Shadow"
       inkscape:menu="Shadows and Glows"
       inkscape:menu-tooltip="Adds a colorizable glow inside"
       color-interpolation-filters="sRGB"
       id="filter3291"
       style="color-interpolation-filters:sRGB;">
      <feGaussianBlur
         stdDeviation="10"
         result="result8"
         id="feGaussianBlur3293" />
      <feComposite
         result="result6"
         in="SourceGraphic"
         operator="in"
         in2="result8"
         id="feComposite3295" />
      <feComposite
         operator="in"
         result="result11"
         in2="result6"
         id="feComposite3297" />
      <feFlood
         result="result10"
         in="result11"
         flood-opacity="1"
         flood-color="rgb(255,222,85)"
         id="feFlood3299" />
      <feBlend
         mode="normal"
         in="result11"
         in2="result10"
         result="result12"
         id="feBlend3301" />
      <feComposite
         result="fbSourceGraphic"
         operator="in"
         in2="SourceGraphic"
         in="result12"
         id="feComposite3303" />
      <feColorMatrix
         result="fbSourceGraphicAlpha"
         in="fbSourceGraphic"
         values="0 0 0 -1 0 0 0 0 -1 0 0 0 0 -1 0 0 0 0 1 0"
         id="feColorMatrix3355" />
      <feFlood
         id="feFlood3357"
         flood-opacity="0.5"
         flood-color="rgb(255,255,255)"
         result="flood"
         in="fbSourceGraphic" />
      <feComposite
         id="feComposite3359"
         in2="fbSourceGraphic"
         in="flood"
         operator="in"
         result="composite1" />
      <feGaussianBlur
         id="feGaussianBlur3361"
         in="composite"
         stdDeviation="100"
         result="blur" />
      <feOffset
         id="feOffset3363"
         dx="0"
         dy="0"
         result="offset" />
      <feComposite
         id="feComposite3365"
         in2="offset"
         in="fbSourceGraphic"
         operator="over"
         result="fbSourceGraphic" />
      <feColorMatrix
         result="fbSourceGraphicAlpha"
         in="fbSourceGraphic"
         values="0 0 0 -1 0 0 0 0 -1 0 0 0 0 -1 0 0 0 0 1 0"
         id="feColorMatrix3367" />
      <feFlood
         id="feFlood3369"
         flood-opacity="1"
         flood-color="rgb(255,255,255)"
         result="flood"
         in="fbSourceGraphic" />
      <feComposite
         id="feComposite3371"
         in2="fbSourceGraphic"
         in="flood"
         operator="in"
         result="composite1" />
      <feGaussianBlur
         id="feGaussianBlur3373"
         in="composite"
         stdDeviation="100"
         result="blur" />
      <feOffset
         id="feOffset3375"
         dx="0"
         dy="0"
         result="offset" />
      <feComposite
         id="feComposite3377"
         in2="offset"
         in="fbSourceGraphic"
         operator="over"
         result="composite2" />
    </filter>
    <filter
       style="color-interpolation-filters:sRGB;"
       inkscape:label="Drop Shadow"
       id="filter3379">
      <feFlood
         flood-opacity="0.5"
         flood-color="rgb(0,0,0)"
         result="flood"
         id="feFlood3381" />
      <feComposite
         in="flood"
         in2="SourceGraphic"
         operator="in"
         result="composite1"
         id="feComposite3383" />
      <feGaussianBlur
         in="composite"
         stdDeviation="100"
         result="blur"
         id="feGaussianBlur3385" />
      <feOffset
         dx="1.38778e-16"
         dy="-2.77556e-17"
         result="offset"
         id="feOffset3387" />
      <feComposite
         in="SourceGraphic"
         in2="offset"
         operator="over"
         result="composite2"
         id="feComposite3389" />
    </filter>
  </defs>
  <sodipodi:namedview
     pagecolor="#ffffff"
     bordercolor="#666666"
     borderopacity="1"
     objecttolerance="10"
     gridtolerance="10"
     guidetolerance="10"
     inkscape:pageopacity="0"
     inkscape:pageshadow="2"
     inkscape:window-width="1283"
     inkscape:window-height="729"
     id="namedview12"
     showgrid="false"
     inkscape:zoom="0.472"
     inkscape:cx="889.12331"
     inkscape:cy="487.27736"
     inkscape:window-x="0"
     inkscape:window-y="0"
     inkscape:window-maximized="0"
     inkscape:current-layer="svg2" />
  <g
     id="layer1"
     fill="#ffffff"
     stroke="none"
     style="filter:url(#filter3379)">
    <path
       d="M4968 7564 c-61 -33 -58 33 -58 -1199 0 -815 3 -1132 11 -1148 6 -12 20 -32 31 -43 19 -22 19 -22 -3 -38 -13 -9 -42 -16 -64 -16 -60 0 -215 -36 -334 -76 -236 -80 -454 -217 -636 -399 -231 -231 -383 -511 -457 -841 -20 -88 -22 -127 -22 -349 0 -222 2 -261 22 -350 74 -329 226 -609 457 -840 231 -231 511 -383 841 -457 88 -20 127 -22 349 -22 222 0 261 2 349 22 330 74 610 226 841 457 231 231 383 511 457 840 20 89 22 128 22 350 0 222 -2 261 -22 350 -74 329 -226 609 -457 840 -182 182 -400 319 -636 399 -119 40 -274 76 -334 76 -22 0 -51 7 -64 16 -22 16 -22 16 -3 38 11 11 25 31 31 43 8 16 11 333 11 1148 0 1237 3 1167 -60 1200 -40 21 -234 20 -272 -1z m358 -2829 c272 -48 519 -180 717 -384 145 -150 238 -302 302 -494 47 -140 65 -255 65 -412 0 -350 -123 -654 -367 -906 -154 -159 -322 -266 -523 -333 -143 -48 -257 -66 -415 -66 -350 0 -654 123 -906 367 -204 198 -336 445 -384 717 -19 114 -19 328 0 442 31 177 131 419 212 514 18 21 33 43 33 49 0 21 199 217 277 273 157 113 356 199 539 232 108 19 339 20 450 1z"
       id="path5" />
  </g>
  <g
     id="layer2"
     style="filter:url(#filter3161)"
     stroke="none"
     fill="#000000">
    <path
       d="m 2371,8836 c -53,-30 -50,148 -51,-2821 0,-2394 2,-2777 15,-2889 60,-509 243,-959 564,-1381 97,-129 357,-389 486,-486 422,-321 872,-504 1381,-564 170,-20 512,-20 674,0 513,64 955,245 1375,564 129,97 389,357 486,486 282,371 443,730 542,1209 34.2415,191.3408 26.2966,278.7881 24,2956 3,2144 0,2862 -8,2883 -22,52 -116,75 -177,43 -15,-8 -290,-279 -612,-601 -322,-322 -597,-593 -612,-601 -25,-13 -31,-13 -55,0 -16,8 -291,279 -613,601 -322,322 -597,593 -612,601 -35,18 -111,18 -146,0 -15,-8 -288,-276 -607,-596 -323,-324 -597,-590 -617,-601 -38,-19 -38,-19 -75,0 -21,11 -295,277 -618,601 -319,320 -592,588 -607,596 -34,17 -105,18 -137,0 z M 5220,7545 c 63,-33 60,35 60,-1180 0,-1173 1,-1137 -44,-1174 -23,-19 -20,-57 6,-75 12,-9 41,-16 63,-16 60,0 215,-36 334,-76 236,-80 454,-217 636,-399 231,-231 383,-511 457,-840 19,-87 22,-219.7558 22,-330 0,-110.2442 -3,-243 -22,-330 -74,-329 -226,-609 -457,-840 -231,-231 -511,-383 -841,-457 -87,-20 -128,-22 -329,-22 -201,0 -242,2 -329,22 -330,74 -610,226 -841,457 -231,231 -383,511 -457,840 -19,87 -22,129 -22,330 0,202 2,242 22,329 74,330 226,610 457,841 182,182 400,319 636,399 119,40 274,76 334,76 22,0 51,7 63,16 26,18 29,56 6,75 -45,37 -44,1 -44,1174 0,1210 -3,1146 58,1179 38,21 193,21 232,1 z"
       id="path8"
       inkscape:connector-curvature="0"
       sodipodi:nodetypes="cccccccccccccsccscccccccccsccscscacscscscscscsccscc" />
    <path
       d="M4856 4754 c-183 -33 -382 -119 -539 -232 -78 -56 -277 -252 -277 -273 0 -6 -15 -28 -33 -49 -81 -95 -181 -337 -212 -514 -20 -117 -20 -365 0 -482 48 -272 180 -519 384 -717 193 -186 427 -307 685 -352 117 -20 365 -20 482 0 272 48 519 180 717 384 145 150 238 302 302 494 49 146 65 254 65 432 0 178 -16 286 -65 432 -64 192 -157 344 -302 494 -198 204 -445 336 -717 384 -112 19 -380 19 -490 -1z"
       id="path10" />
  </g>
</svg>
